<?xml version="1.0"?>
<svg width="24" height="24" xmlns="http://www.w3.org/2000/svg" xmlns:svg="http://www.w3.org/2000/svg" version="1.1">
 <g class="layer">
  <title>Layer 1</title>
  <path d="m11,10l0,2l-1,0l0,2l-2,0l0,-2l-2.17,0c-0.41,1.17 -1.52,2 -2.83,2a3,3 0 0 1 -3,-3a3,3 0 0 1 3,-3c1.31,0 2.42,0.83 2.83,2l5.17,0m-8,0a1,1 0 0 0 -1,1a1,1 0 0 0 1,1a1,1 0 0 0 1,-1a1,1 0 0 0 -1,-1m13,4c2.67,0 8,1.34 8,4l0,2l-16,0l0,-2c0,-2.66 5.33,-4 8,-4m0,-2a4,4 0 0 1 -4,-4a4,4 0 0 1 4,-4a4,4 0 0 1 4,4a4,4 0 0 1 -4,4z" fill="#ffffff" id="svg_1"/>
 </g>
</svg>